<svg width="32" height="32" viewBox="0 0 32 32" fill="none" xmlns="http://www.w3.org/2000/svg">
<rect width="32" height="32" rx="2" fill="#01163B"/>
<g clip-path="url(#clip0_841_258)">
<path d="M16.4886 20.9716L16.045 20.394C16.0172 20.3963 15.9892 20.3972 15.9612 20.3968H15.4701V20.9716H15.0664V18.999H15.9607C16.5321 18.999 16.8861 19.2639 16.8861 19.7007C16.8861 19.9994 16.7184 20.2192 16.4234 20.3235L16.9234 20.9716H16.4886ZM15.9421 19.309H15.4701V20.0952H15.9421C16.297 20.0952 16.4793 19.9489 16.4793 19.7007C16.4793 19.4525 16.2961 19.309 15.9421 19.309Z" fill="white"/>
<path d="M17.1812 19.9857C17.1812 19.4019 17.678 18.9712 18.3519 18.9712C19.0257 18.9712 19.5226 19.3995 19.5226 19.9857C19.5226 20.5718 19.0257 21.0002 18.3519 21.0002C17.678 21.0002 17.1812 20.569 17.1812 19.9857ZM19.1158 19.9857C19.1158 19.5831 18.7897 19.2924 18.3519 19.2924C17.914 19.2924 17.5879 19.5827 17.5879 19.9857C17.5879 20.3887 17.914 20.6789 18.3519 20.6789C18.7897 20.6789 19.1158 20.3887 19.1158 19.9857Z" fill="white"/>
<path d="M19.7958 19.9857C19.7958 19.4019 20.2926 18.9712 20.9665 18.9712C21.6403 18.9712 22.1372 19.3995 22.1372 19.9857C22.1372 20.5718 21.6403 21.0002 20.9665 21.0002C20.2926 21.0002 19.7958 20.569 19.7958 19.9857ZM21.7304 19.9857C21.7304 19.5831 21.4043 19.2924 20.9665 19.2924C20.5286 19.2924 20.2026 19.5827 20.2026 19.9857C20.2026 20.3887 20.5286 20.6789 20.9665 20.6789C21.4043 20.6789 21.7304 20.3887 21.7304 19.9857Z" fill="white"/>
<path d="M22.9757 19.309H22.2552V18.999H24.0998V19.309H23.3794V20.9716H22.9757V19.309Z" fill="white"/>
<path d="M26.4008 20.972L26.3977 19.6636L25.6835 20.7457H25.5034L24.7892 19.6805V20.9712H24.4045V18.9985H24.7373L25.6005 20.3069L26.4483 18.9985H26.781L26.7841 20.9712L26.4008 20.972Z" fill="white"/>
<path d="M28.9999 20.6645V20.9716H27.3696V18.999H28.9564V19.3066H27.7733V19.8193H28.8229V20.1212H27.7733V20.6647L28.9999 20.6645Z" fill="white"/>
<path d="M8.70886 17.6361L11.477 12H12.8966L15.6737 17.6361H14.1654L11.8945 12.6602H12.4625L10.1817 17.6361H8.70886ZM10.0929 16.4283L10.4749 15.438H13.6689L14.0593 16.4283H10.0929Z" fill="white"/>
<path d="M21.9816 17.6361V12H23.1705L25.8144 15.9775H25.1845L27.7841 12H28.9641L28.9818 17.6361H27.6333L27.6244 13.876H27.8728L25.7967 17.0403H25.149L23.0294 13.876H23.3311V17.6361H21.9816Z" fill="white"/>
<path d="M3 17.6361V12H6.03434C6.81511 12 7.40216 12.1342 7.7955 12.4026C8.18884 12.671 8.38551 13.0252 8.38551 13.4654C8.38551 13.7606 8.30566 14.0169 8.14596 14.2343C7.98301 14.4542 7.75562 14.6285 7.48941 14.7375C7.21126 14.8557 6.89185 14.9148 6.53119 14.9147L6.69977 14.5845C7.09015 14.5845 7.43617 14.6422 7.73783 14.7576C8.03949 14.8731 8.27461 15.0435 8.44318 15.2689C8.61176 15.4944 8.69604 15.7708 8.69604 16.0982C8.69604 16.5813 8.48606 16.9584 8.06611 17.2295C7.64615 17.5005 7.02804 17.6361 6.21179 17.6361H3ZM4.42845 16.6538H6.10532C6.47796 16.6538 6.76039 16.5988 6.95263 16.4887C7.14486 16.3787 7.24098 16.2029 7.24098 15.9614C7.24098 15.7252 7.14486 15.5494 6.95263 15.434C6.76039 15.3186 6.47796 15.2609 6.10532 15.2609H4.32198V14.3108H5.85689C6.20573 14.3108 6.47337 14.2558 6.65984 14.1457C6.84631 14.0357 6.93947 13.868 6.93932 13.6425C6.93932 13.4226 6.84616 13.2575 6.65984 13.1473C6.47352 13.0372 6.20587 12.9822 5.85689 12.9823H4.42845V16.6538Z" fill="white"/>
<path d="M21.1485 15.1483V12H19.7289V15.1079C19.7289 15.1216 19.7289 15.1349 19.7289 15.1481L21.1485 15.1483Z" fill="#00CAE9"/>
<path d="M21.1485 15.1483V12L19.7289 13.2077V15.1079C19.7289 15.1216 19.7289 15.1349 19.7289 15.1481L21.1485 15.1483Z" fill="#0080FF"/>
<path d="M19.7281 15.1482H21.1484V12.2012L19.7288 15.0997" fill="#005CFF"/>
<path d="M19.7053 15.4867C19.6596 15.8308 19.5462 16.091 19.365 16.2673C19.1224 16.5036 18.7823 16.6217 18.3447 16.6216C17.9072 16.6214 17.5671 16.5034 17.3244 16.2673C17.0817 16.0313 16.9605 15.6448 16.9606 15.1079V12H15.5233V15.1562C15.5233 15.9828 15.7717 16.6189 16.2686 17.0644C16.7654 17.5099 17.4545 17.7327 18.3359 17.7327C19.2172 17.7327 19.9063 17.5099 20.4031 17.0644C20.8319 16.6804 21.0756 16.1545 21.134 15.4867H19.7053Z" fill="white"/>
</g>
<defs>
<clipPath id="clip0_841_258">
<rect width="26" height="9" fill="white" transform="translate(3 12)"/>
</clipPath>
</defs>
</svg>
