<svg width="16" height="16" viewBox="0 0 16 16" fill="none" xmlns="http://www.w3.org/2000/svg">
<rect width="16" height="16" rx="2" fill="#01163B"/>
<g clip-path="url(#clip0_841_274)">
<path d="M8.22551 9.98756L8.02076 9.73081C8.0079 9.73185 7.99498 9.73227 7.98207 9.73206H7.75541V9.98756H7.56909V9.11084H7.98186C8.24557 9.11084 8.40896 9.22857 8.40896 9.4227C8.40896 9.55546 8.33157 9.65315 8.19541 9.6995L8.42616 9.98756H8.22551ZM7.97326 9.24861H7.75541V9.59805H7.97326C8.13706 9.59805 8.22121 9.53301 8.22121 9.4227C8.22121 9.3124 8.13665 9.24861 7.97326 9.24861Z" fill="white"/>
<path d="M8.54517 9.54903C8.54517 9.28959 8.77448 9.09814 9.08549 9.09814C9.3965 9.09814 9.62582 9.28852 9.62582 9.54903C9.62582 9.80954 9.3965 9.99992 9.08549 9.99992C8.77448 9.99992 8.54517 9.80829 8.54517 9.54903ZM9.43807 9.54903C9.43807 9.37011 9.28758 9.24092 9.08549 9.24092C8.88341 9.24092 8.73292 9.36993 8.73292 9.54903C8.73292 9.72813 8.88341 9.85714 9.08549 9.85714C9.28758 9.85714 9.43807 9.72813 9.43807 9.54903Z" fill="white"/>
<path d="M9.75195 9.54903C9.75195 9.28959 9.98127 9.09814 10.2923 9.09814C10.6033 9.09814 10.8326 9.28852 10.8326 9.54903C10.8326 9.80954 10.6033 9.99992 10.2923 9.99992C9.98127 9.99992 9.75195 9.80829 9.75195 9.54903ZM10.6449 9.54903C10.6449 9.37011 10.4944 9.24092 10.2923 9.24092C10.0902 9.24092 9.93971 9.36993 9.93971 9.54903C9.93971 9.72813 10.0902 9.85714 10.2923 9.85714C10.4944 9.85714 10.6449 9.72813 10.6449 9.54903Z" fill="white"/>
<path d="M11.2195 9.24861H10.887V9.11084H11.7383V9.24861H11.4058V9.98756H11.2195V9.24861Z" fill="white"/>
<path d="M12.8004 9.98743L12.799 9.40593L12.4693 9.88688H12.3862L12.0565 9.41345V9.98707H11.879V9.11035H12.0326L12.431 9.69185L12.8223 9.11035H12.9759L12.9773 9.98707L12.8004 9.98743Z" fill="white"/>
<path d="M14 9.85104V9.98756H13.2476V9.11084H13.9799V9.24754H13.4339V9.4754H13.9183V9.60959H13.4339V9.85113L14 9.85104Z" fill="white"/>
<path d="M4.63489 8.50492L5.91251 6H6.56769L7.84941 8.50492H7.15327L6.10517 6.29343H6.36735L5.31465 8.50492H4.63489ZM5.2737 7.96815L5.44998 7.528H6.92416L7.10433 7.96815H5.2737Z" fill="white"/>
<path d="M10.7607 8.50492V6H11.3095L12.5298 7.76776H12.239L13.4388 6H13.9835L13.9916 8.50492H13.3692L13.3651 6.83378H13.4798L12.5216 8.24011H12.2226L11.2444 6.83378H11.3836V8.50492H10.7607Z" fill="white"/>
<path d="M2 8.50492V6H3.40047C3.76082 6 4.03177 6.05964 4.21331 6.17892C4.39485 6.2982 4.48562 6.45566 4.48562 6.65128C4.48562 6.78249 4.44877 6.8964 4.37506 6.99302C4.29985 7.09078 4.1949 7.16824 4.07203 7.21668C3.94366 7.26922 3.79624 7.29546 3.62978 7.2954L3.70758 7.14869C3.88776 7.14869 4.04746 7.17433 4.18669 7.22562C4.32592 7.27691 4.43443 7.35266 4.51224 7.45285C4.59004 7.55305 4.62894 7.67591 4.62894 7.82144C4.62894 8.03614 4.53203 8.20373 4.3382 8.32421C4.14438 8.44468 3.8591 8.50492 3.48236 8.50492H2ZM2.65928 8.06835H3.43322C3.60521 8.06835 3.73557 8.0439 3.82429 7.99499C3.91301 7.94608 3.95738 7.86796 3.95738 7.7606C3.95738 7.65563 3.91301 7.5775 3.82429 7.52621C3.73557 7.47492 3.60521 7.44928 3.43322 7.44928H2.61014V7.02702H3.31857C3.47957 7.02702 3.6031 7.00256 3.68916 6.95366C3.77522 6.90475 3.81822 6.8302 3.81815 6.73001C3.81815 6.63225 3.77515 6.5589 3.68916 6.50993C3.60316 6.46097 3.47963 6.43651 3.31857 6.43657H2.65928V8.06835Z" fill="white"/>
<path d="M10.3761 7.39927V6H9.72095V7.38128C9.72095 7.38737 9.72095 7.39327 9.72095 7.39918L10.3761 7.39927Z" fill="#00CAE9"/>
<path d="M10.3761 7.39927V6L9.72095 6.53677V7.38128C9.72095 7.38737 9.72095 7.39327 9.72095 7.39918L10.3761 7.39927Z" fill="#0080FF"/>
<path d="M9.7207 7.39916H10.3762V6.08936L9.72101 7.3776" fill="#005CFF"/>
<path d="M9.71018 7.54965C9.68909 7.70257 9.63674 7.81821 9.55314 7.89658C9.44114 8.00161 9.28417 8.05409 9.08222 8.05403C8.88027 8.05398 8.7233 8.00149 8.6113 7.89658C8.4993 7.79167 8.44334 7.61991 8.44341 7.38128V6H7.78003V7.40276C7.78003 7.77014 7.89469 8.05284 8.124 8.25085C8.35332 8.44886 8.67136 8.54786 9.07812 8.54786C9.48489 8.54786 9.80293 8.44886 10.0322 8.25085C10.2302 8.08016 10.3426 7.84642 10.3696 7.54965H9.71018Z" fill="white"/>
</g>
<defs>
<clipPath id="clip0_841_274">
<rect width="12" height="4" fill="white" transform="translate(2 6)"/>
</clipPath>
</defs>
</svg>
