<svg width="22" height="22" viewBox="0 0 22 22" fill="none" xmlns="http://www.w3.org/2000/svg">
<path id="Vector" d="M0.208717 0.431187L0.31179 0.31179C0.689722 -0.0661416 1.28111 -0.10049 1.69785 0.208717L1.81724 0.31179L11 9.49407L20.1828 0.31179C20.5985 -0.103925 21.2725 -0.103925 21.6882 0.31179C22.1039 0.727505 22.1039 1.40153 21.6882 1.81724L12.5059 11L21.6882 20.1828C22.0662 20.5606 22.1005 21.1521 21.7912 21.5688L21.6882 21.6882C21.3104 22.0662 20.7189 22.1005 20.3022 21.7912L20.1828 21.6882L11 12.5059L1.81724 21.6882C1.40153 22.1039 0.727505 22.1039 0.31179 21.6882C-0.103925 21.2725 -0.103925 20.5985 0.31179 20.1828L9.49407 11L0.31179 1.81724C-0.0661416 1.43931 -0.10049 0.847924 0.208717 0.431187Z" fill="white"/>
</svg>
