<svg width="28" height="22" viewBox="0 0 28 22" fill="none" xmlns="http://www.w3.org/2000/svg">
<path id="Vector" d="M0 1.13793C0 0.509474 0.470106 0 1.05 0H26.95C27.5299 0 28 0.509474 28 1.13793C28 1.76639 27.5299 2.27586 26.95 2.27586H1.05C0.470106 2.27586 0 1.76639 0 1.13793ZM0 20.8621C0 20.2336 0.470106 19.7241 1.05 19.7241H26.95C27.5299 19.7241 28 20.2336 28 20.8621C28 21.4905 27.5299 22 26.95 22H1.05C0.470106 22 0 21.4905 0 20.8621ZM1.05 9.86207C0.470106 9.86207 0 10.3716 0 11C0 11.6284 0.470106 12.1379 1.05 12.1379H26.95C27.5299 12.1379 28 11.6284 28 11C28 10.3716 27.5299 9.86207 26.95 9.86207H1.05Z" fill="white"/>
</svg>
